<svg width="240.94025878906248px" height="94.05714416503906px" xmlns="http://www.w3.org/2000/svg" viewBox="129.52987060546877 27.97142791748047 240.94025878906248 94.05714416503906" style="background: rgba(0, 0, 0, 0);" preserveAspectRatio="xMidYMid"><defs><linearGradient id="editing-outline-gradient" x1="-0.33867056794542405" x2="1.338670567945424" y1="-0.044639035015027084" y2="1.044639035015027"><stop offset="0" stop-color="#ee4208"></stop><stop offset="1" stop-color="#4139ff"></stop></linearGradient><filter id="editing-outline" x="-100%" y="-100%" width="300%" height="300%"><feMorphology in="SourceGraphic" operator="dilate" radius="1" result="outline"></feMorphology><feComposite operator="out" in="outline" in2="SourceAlpha"></feComposite></filter></defs><g filter="url(#editing-outline)"><g transform="translate(138.03048399090767, 99)"><path d="M26.11-42.69L26.11-42.69L26.11-42.69Q41.79-42.69 41.79-31.62L41.79-31.62L41.79-31.62Q41.79-25.54 37.89-21.89L37.89-21.89L37.89-21.89Q34.05-18.24 27.33-18.24L27.33-18.24L27.33-18.24Q24.19-18.24 21.76-20.03L21.76-20.03L21.76-20.03Q20.61-20.80 19.84-21.82L19.84-21.82L19.84-21.82Q24.51-21.82 26.98-24.67L26.98-24.67L26.98-24.67Q29.44-27.52 29.44-33.09L29.44-33.09L29.44-33.09Q29.44-38.66 23.94-38.66L23.94-38.66L22.40-38.66L22.40-38.66Q22.02-38.66 21.70-38.59L21.70-38.59L14.34 0L0.45 0L8.32-41.92L8.32-41.92Q15.17-42.56 19.14-42.62L19.14-42.62L19.14-42.62Q23.10-42.69 26.11-42.69ZM74.30-7.10L74.30-7.10L74.30-7.10Q74.30-4.29 77.18-3.46L77.18-3.46L77.18-3.46Q76.48-1.09 73.73 0.19L73.73 0.19L73.73 0.19Q71.42 1.28 68.90 1.28L68.90 1.28L68.90 1.28Q66.37 1.28 65.06 0.61L65.06 0.61L65.06 0.61Q63.74-0.06 63.04-1.15L63.04-1.15L63.04-1.15Q61.89-2.82 61.89-5.95L61.89-5.95L61.89-5.95Q61.89-7.81 62.91-12.93L62.91-12.93L63.81-17.79L63.81-17.79Q64.90-23.36 64.90-25.41L64.90-25.41L64.90-25.41Q64.90-28.99 62.91-28.99L62.91-28.99L62.91-28.99Q60.42-28.99 58.82-25.34L58.82-25.34L58.82-25.34Q58.18-23.94 57.73-21.82L57.73-21.82L53.38 0L40.51 1.28L49.54-44.80L62.40-46.08L61.89-43.52L61.89-43.52Q60.10-33.66 58.56-30.34L58.56-30.34L58.56-30.34Q62.14-33.92 68.74-33.92L68.74-33.92L68.74-33.92Q75.71-33.92 76.99-29.31L76.99-29.31L76.99-29.31Q77.44-27.84 77.44-26.56L77.44-26.56L77.44-26.56Q77.44-25.28 77.34-24.29L77.34-24.29L77.34-24.29Q77.25-23.30 76.93-21.50L76.93-21.50L76.10-16.90L74.62-9.66L74.62-9.66Q74.30-8.19 74.30-7.10ZM96.32 1.28L96.32 1.28L96.32 1.28Q82.24 1.28 82.24-11.97L82.24-11.97L82.24-11.97Q82.24-21.38 87.42-27.46L87.42-27.46L87.42-27.46Q92.93-33.92 102.46-33.92L102.46-33.92L102.46-33.92Q109.38-33.92 112.90-30.72L112.90-30.72L112.90-30.72Q116.42-27.52 116.42-20.80L116.42-20.80L116.42-20.80Q116.42-10.56 110.91-4.61L110.91-4.61L110.91-4.61Q105.54 1.28 96.32 1.28ZM97.98-26.56L97.98-26.56L97.98-26.56Q97.22-24.83 96.61-22.24L96.61-22.24L96.61-22.24Q96-19.65 95.23-15.55L95.23-15.55L95.23-15.55Q94.46-11.46 94.46-6.40L94.46-6.40L94.46-6.40Q94.46-4.74 95.01-3.65L95.01-3.65L95.01-3.65Q95.55-2.56 97.02-2.56L97.02-2.56L97.02-2.56Q98.50-2.56 99.42-3.26L99.42-3.26L99.42-3.26Q100.35-3.97 101.06-5.63L101.06-5.63L101.06-5.63Q102.34-8.58 103.36-14.05L103.36-14.05L103.36-14.05Q104.38-19.52 104.48-21.89L104.48-21.89L104.48-21.89Q104.58-24.26 104.58-26.02L104.58-26.02L104.58-26.02Q104.58-27.78 104.06-28.93L104.06-28.93L104.06-28.93Q103.55-30.08 102.11-30.08L102.11-30.08L102.11-30.08Q100.67-30.08 99.71-29.18L99.71-29.18L99.71-29.18Q98.75-28.29 97.98-26.56ZM138.50-31.17L138.50-31.17L138.50-31.17Q136.32-32.83 136.32-36.38L136.32-36.38L136.32-36.38Q136.32-39.94 138.66-41.79L138.66-41.79L138.66-41.79Q140.99-43.65 145.02-43.65L145.02-43.65L145.02-43.65Q147.58-43.65 153.66-42.75L153.66-42.75L158.02-42.11L158.02-42.11Q160.19-41.86 162.46-41.86L162.46-41.86L162.46-41.86Q164.74-41.86 166.27-42.82L166.27-42.82L166.27-42.82Q168.58-40.77 168.58-37.82L168.58-37.82L168.58-37.82Q168.58-34.88 165.95-32.77L165.95-32.77L165.95-32.77Q163.26-30.53 159.81-30.53L159.81-30.53L159.81-30.53Q158.14-30.53 155.46-30.98L155.46-30.98L155.46-30.98Q152.32-21.12 152.32-14.27L152.32-14.27L152.32-14.27Q152.32-7.42 155.78-3.84L155.78-3.84L155.78-3.84Q154.18-0.96 151.81 0.16L151.81 0.16L151.81 0.16Q149.44 1.28 145.89 1.28L145.89 1.28L145.89 1.28Q142.34 1.28 140.13-0.67L140.13-0.67L140.13-0.67Q137.92-2.62 137.92-6.66L137.92-6.66L137.92-6.66Q137.92-11.33 140.48-19.01L140.48-19.01L140.48-19.01Q143.04-26.62 146.88-32.45L146.88-32.45L146.88-32.45Q145.02-32.64 143.10-32.64L143.10-32.64L143.10-32.64Q139.14-32.64 138.50-31.17ZM166.37-1.92L166.37-1.92L166.37-1.92Q164.86-3.58 164.19-6.21L164.19-6.21L164.19-6.21Q163.52-8.83 163.52-13.12L163.52-13.12L163.52-13.12Q163.52-17.41 164.99-21.31L164.99-21.31L164.99-21.31Q166.46-25.22 169.15-28.03L169.15-28.03L169.15-28.03Q174.66-33.92 183.74-33.92L183.74-33.92L183.74-33.92Q187.01-33.92 189.38-32.83L189.38-32.83L200.32-33.92L195.58-8.96L195.58-8.96Q195.39-8.19 195.39-6.78L195.39-6.78L195.39-6.78Q195.39-5.38 196.26-4.48L196.26-4.48L196.26-4.48Q197.12-3.58 198.40-3.46L198.40-3.46L198.40-3.46Q197.76-1.28 195.42 0L195.42 0L195.42 0Q193.09 1.28 190.46 1.28L190.46 1.28L190.46 1.28Q187.84 1.28 186.08 0.29L186.08 0.29L186.08 0.29Q184.32-0.70 183.81-2.37L183.81-2.37L183.81-2.37Q182.78-0.77 180.61 0.26L180.61 0.26L180.61 0.26Q178.43 1.28 175.52 1.28L175.52 1.28L175.52 1.28Q172.61 1.28 170.24 0.51L170.24 0.51L170.24 0.51Q167.87-0.26 166.37-1.92ZM179.87-27.90L179.87-27.90L179.87-27.90Q179.14-26.75 178.50-24.80L178.50-24.80L178.50-24.80Q177.86-22.85 176.80-17.63L176.80-17.63L176.80-17.63Q175.74-12.42 175.74-8.70L175.74-8.70L175.74-8.70Q175.74-4.99 176.32-3.90L176.32-3.90L176.32-3.90Q176.90-2.82 177.92-2.82L177.92-2.82L177.92-2.82Q179.97-2.82 181.47-4.77L181.47-4.77L181.47-4.77Q182.98-6.72 183.55-10.18L183.55-10.18L186.94-28.93L186.94-28.93Q185.60-30.08 184.03-30.08L184.03-30.08L184.03-30.08Q182.46-30.08 181.54-29.57L181.54-29.57L181.54-29.57Q180.61-29.06 179.87-27.90ZM219.14-3.52L219.14-3.52L219.14-3.52Q217.15 1.28 210.82 1.28L210.82 1.28L210.82 1.28Q207.55 1.28 205.50-0.96L205.50-0.96L205.50-0.96Q203.78-2.94 203.78-4.93L203.78-4.93L203.78-4.93Q203.78-10.11 206.14-20.22L206.14-20.22L208.51-32.64L221.50-33.92L217.60-13.70L217.60-13.70Q216.51-8.96 216.51-7.30L216.51-7.30L216.51-7.30Q216.51-3.65 219.14-3.52ZM209.66-41.54L209.66-41.54L209.66-41.54Q209.66-44.03 211.74-45.38L211.74-45.38L211.74-45.38Q213.82-46.72 216.83-46.72L216.83-46.72L216.83-46.72Q219.84-46.72 221.66-45.38L221.66-45.38L221.66-45.38Q223.49-44.03 223.49-41.54L223.49-41.54L223.49-41.54Q223.49-39.04 221.47-37.76L221.47-37.76L221.47-37.76Q219.46-36.48 216.45-36.48L216.45-36.48L216.45-36.48Q213.44-36.48 211.55-37.76L211.55-37.76L211.55-37.76Q209.66-39.04 209.66-41.54Z" fill="url(#editing-outline-gradient)"></path></g></g><style>text {
  font-size: 64px;
  font-family: Arial Black;
  dominant-baseline: central;
  text-anchor: middle;
}</style></svg>